# xmcd
#
# Track frame offsets: 
#        150
#        22860
#        47890
#        70235
#        92762
#        104302
#        126402
#        149602
#        173162
#        197515
#        222665
#        243730
#
# Disc length: 3534 seconds
#
# Revision: 0
# Processed by: cddbd v1.5.2PL0 Copyright (c) Steve Scherf et al.
# Submitted via: ExactAudioCopyFreeDBPlugin 1.0
#
DISCID=b60dcc0c
DTITLE=Karthik Raja - Ullasam
DYEAR=1997
DGENRE=Bluegrass
TTITLE0=uLLASAM 
TTITLE1=Konjum
TTITLE2=Veesum
TTITLE3=Jolly
TTITLE4=Yaro rar
TTITLE5=Chollare
TTITLE6=Deva - Kalamellam KadhalVazhga - Bagavane
TTITLE7=Deva - Or mani
TTITLE8=Deva - Vennilave
TTITLE9=Deva - Babylona
TTITLE10=Deva - Puthampudhu
TTITLE11=Deva - Andalu
EXTD=
EXTT0=
EXTT1=
EXTT2=
EXTT3=
EXTT4=
EXTT5=
EXTT6=
EXTT7=
EXTT8=
EXTT9=
EXTT10=
EXTT11=
PLAYORDER=
